<?xml version="1.0" encoding="utf-8"?>
<!-- Generator: Adobe Illustrator 24.0.1, SVG Export Plug-In . SVG Version: 6.00 Build 0)  -->
<svg version="1.1" id="Calque_2" xmlns="http://www.w3.org/2000/svg" xmlns:xlink="http://www.w3.org/1999/xlink" x="0px" y="0px"
	 viewBox="0 0 1000 1000" style="enable-background:new 0 0 1000 1000;" xml:space="preserve">
<style type="text/css">
	.st0{fill:#0071B6;}
</style>
<path class="st0" d="M973.4,265L833.5,125.1c-17.8-17.8-46.8-17.8-64.6,0L424.7,469.2c-15.6,12.3-38.1,11.7-53.1-1.8
	c0,0-0.1,0.1-0.2,0.2L228.5,324.7c-16.1-16.1-42.2-16.1-58.3,0L24,470.9C7.9,487,7.9,513.1,24,529.2c0,0,345.8,346.2,347.6,347.6
	c16.2,14.6,41.2,14.1,56.8-1.5l545-545.7C991.2,311.8,991.2,282.9,973.4,265z"/>
</svg>
